<svg width="33" height="33" viewBox="0 0 33 33" fill="none" xmlns="http://www.w3.org/2000/svg">
<g clip-path="url(#clip0_2_58)">
<g clip-path="url(#clip1_2_58)">
<path opacity="0.75" d="M31.4531 52.5937C43.1287 52.5937 52.5938 43.1287 52.5938 31.4531C52.5938 19.7775 43.1287 10.3125 31.4531 10.3125C19.7775 10.3125 10.3125 19.7775 10.3125 31.4531C10.3125 43.1287 19.7775 52.5937 31.4531 52.5937Z" fill="url(#paint0_linear_2_58)"/>
<path opacity="0.25" d="M39.3973 17.2762C39.3973 17.2762 43.7783 27.0664 38.0539 33.7158C32.3294 40.3653 12.0749 43.6664 2.45134 36.3568C-7.17203 29.0471 -11.1295 13.3809 -11.9473 9.13657C-13.7288 -1.02153 30.1535 -24.1012 39.3973 17.2762Z" fill="white"/>
</g>
<path d="M0 12.375V30.9375H24.75V12.375H0ZM21.0581 14.4375L12.375 22.3266L3.69187 14.4375H21.0581ZM2.0625 15.7369L6.11531 19.4184L2.0625 26.1834V15.7369ZM2.85656 28.875L7.6725 20.8416L12.375 25.1109L17.0775 20.8416L21.8934 28.875H2.85656ZM22.6875 26.1834L18.6347 19.4184L22.6875 15.7369V26.1834Z" fill="#020F4B"/>
<path d="M28.875 28.875H26.8125V10.3125H2.0625V8.25H28.875V28.875Z" fill="#020F4B"/>
<path d="M33 24.75H30.9375V6.1875H6.1875V4.125H33V24.75Z" fill="#020F4B"/>
</g>
<defs>
<linearGradient id="paint0_linear_2_58" x1="22.0516" y1="21.1182" x2="52.0201" y2="54.0836" gradientUnits="userSpaceOnUse">
<stop stop-color="#01FFEA" stop-opacity="0"/>
<stop offset="1" stop-color="#EAFF60"/>
</linearGradient>
<clipPath id="clip0_2_58">
<rect width="33" height="33" fill="white"/>
</clipPath>
<clipPath id="clip1_2_58">
<rect width="57.75" height="57.75" fill="white"/>
</clipPath>
</defs>
</svg>
